<?xml version="1.0" standalone="no"?>
<!DOCTYPE svg PUBLIC "-//W3C//DTD SVG 20010904//EN"
 "http://www.w3.org/TR/2001/REC-SVG-20010904/DTD/svg10.dtd">
<svg version="1.0" xmlns="http://www.w3.org/2000/svg"
 width="515.000000pt" height="229.000000pt" viewBox="0 0 515.000000 229.000000"
 preserveAspectRatio="xMidYMid meet">
<metadata>
Created by potrace 1.16, written by Peter Selinger 2001-2019
</metadata>
<g transform="translate(0.000000,229.000000) scale(0.100000,-0.100000)"
fill="#000000" stroke="none">
<path d="M228 2079 c-17 -9 -18 -37 -18 -359 0 -191 3 -355 6 -364 5 -13 22
-16 85 -16 l79 0 0 155 0 155 104 0 c58 0 116 -4 129 -9 13 -5 49 -43 81 -85
31 -41 62 -81 69 -88 7 -7 24 -29 37 -48 53 -77 57 -80 147 -80 45 0 85 5 88
10 3 6 -4 25 -17 43 -31 44 -139 181 -148 187 -4 3 -11 13 -16 22 -5 10 -31
40 -57 67 l-48 50 28 38 c15 21 33 43 38 50 6 6 20 24 32 40 12 15 34 44 50
65 15 20 37 48 47 63 11 14 30 38 43 53 39 45 28 57 -59 60 -91 3 -87 7 -207
-156 -114 -154 -111 -152 -237 -152 l-104 0 0 149 c0 127 -2 150 -16 155 -25
10 -117 6 -136 -5z"/>
<path d="M1323 2079 c-79 -9 -111 -25 -160 -78 -40 -44 -53 -112 -53 -287 0
-343 39 -374 468 -374 204 0 246 3 299 19 127 39 163 117 163 354 0 273 -46
346 -232 367 -99 12 -383 11 -485 -1z m487 -158 c46 -12 60 -60 60 -209 0
-141 -10 -180 -49 -202 -12 -6 -112 -10 -254 -10 l-234 0 -24 26 c-23 25 -24
30 -24 189 0 145 2 165 19 183 10 12 28 23 40 25 35 7 439 5 466 -2z"/>
<path d="M2172 2078 c-14 -14 -17 -704 -3 -726 5 -9 29 -12 82 -10 l74 3 3
153 3 154 119 -4 c116 -3 121 -4 143 -30 43 -52 53 -63 77 -98 24 -34 35 -48
71 -91 9 -11 27 -35 40 -54 l24 -35 87 0 c48 0 90 5 93 10 6 9 -23 58 -50 86
-6 7 -40 49 -76 95 -35 46 -87 108 -116 138 -47 48 -51 55 -37 69 9 8 34 40
57 71 23 31 48 62 55 69 7 8 24 30 39 50 15 21 45 58 66 85 54 66 47 77 -51
77 -91 0 -81 8 -186 -135 -41 -55 -90 -117 -110 -137 l-37 -38 -104 0 -105 0
0 149 c0 127 -2 150 -16 155 -28 11 -130 6 -142 -6z"/>
<path d="M3269 2080 c-80 -10 -137 -42 -176 -102 l-28 -42 0 -220 c0 -189 2
-225 17 -251 33 -58 63 -83 128 -104 57 -19 86 -21 309 -21 326 0 380 15 439
123 15 28 17 61 17 249 0 210 -1 219 -24 261 -35 65 -91 96 -193 107 -96 11
-392 11 -489 0z m484 -159 c55 -21 57 -30 57 -206 0 -162 0 -164 -25 -190
l-26 -25 -239 0 -239 0 -26 25 c-25 26 -25 28 -25 188 0 89 4 167 8 174 23 37
63 43 279 43 116 0 223 -4 236 -9z"/>
<path d="M4265 2085 c-5 -2 -26 -6 -46 -9 -42 -7 -90 -48 -108 -93 -9 -21 -12
-66 -9 -132 3 -113 16 -139 84 -178 37 -22 49 -23 280 -23 196 0 244 -3 253
-14 7 -9 11 -38 9 -73 l-3 -58 -299 -3 c-206 -1 -304 -6 -313 -14 -10 -8 -13
-30 -11 -77 l3 -66 329 -3 c320 -2 330 -2 377 20 39 17 53 31 70 65 19 38 21
58 17 153 -4 124 -15 148 -84 184 -36 19 -60 21 -279 24 -145 2 -245 8 -252
14 -16 13 -17 100 -1 116 9 9 87 12 289 12 153 0 284 3 293 6 12 5 16 21 16
70 0 52 -3 65 -19 74 -18 9 -569 14 -596 5z"/>
</g>
</svg>
